#!OML:ASF F:\VICON\USERDATA\INSTALL\rory3\rory3.ASF
:FULLY-SPECIFIED
:DEGREES
46
root -0.209855992823078 16.97934798850671 17.12857886048723 3.1825133735388578 -2.9622341525735187 -5.3777182848886
lfemur -25.298134729204346 7.058890164665773 -10.135243904536726
ltibia 101.08495060089666
lfoot 2.4902573333547084 -5.719456368345394
ltoes -2.753613719265098
rfemur -21.38091169752642 4.251527192573684 35.74715298699747
rtibia 59.357026806125376
rfoot -19.283207449370884 -17.572236213016726
rtoes 0.46238725783417545
lowerback 17.57007075453499 0.722836065203749 3.335350637247319
upperback 0.04087461057548469 1.9729168277670506 3.800679225708562
thorax -10.236245918042684 0.8629238918293385 1.5856618031496559
lowerneck -22.306522018322237 -2.9214619328711553 -1.399970315197436
upperneck 12.494415339764558 -3.712062006504569 1.496605070480628
head 7.481133580956034 -1.697670012004314 0.16984248696804355
lclavicle -1.669794458201984e-15 1.8264566283508866e-15
lhumerus -50.36606777784875 -15.320853240788217 100.29751278658428
lradius 95.59344268932738
lwrist 33.0320689389857
lhand -25.084902052704763 2.657229229200913
lfingers 7.12502
lthumb 1.4295855730054439 32.62993795989337
rclavicle -1.669794458201984e-15 1.8264566283508866e-15
rhumerus -44.49201572214333 9.753409903582222 -95.87412904487643
rradius 107.3115965646406
rwrist -9.855779479728843
rhand -17.388312617562214 39.544504362177115
rfingers 7.12502
rthumb 8.860102489267943 9.459314184392912
47
root -0.215168271326252 17.042293520876903 18.181781052919902 3.5661242843913126 -2.0988464652290424 -5.559982611493371
lfemur -30.172744294216145 6.871449518105911 -10.064977677046514
ltibia 101.16500750674712
lfoot 0.8398393249864433 -4.790979820825983
ltoes -3.6064601829491902
rfemur -17.136075972892982 3.9423513244268618 36.142666753243
rtibia 58.38468953774794
rfoot -19.209701491310987 -17.78458499926617
rtoes -3.7825048436642157
lowerback 17.399101431849058 0.9557446289027948 3.809755663191871
upperback -0.06179630735264907 2.364117515102995 3.7354343463644266
thorax -10.187828309751975 1.0191954002688226 1.1502517153192362
lowerneck -22.335507344567908 -3.2036623345420727 -1.4245280584434021
upperneck 12.339424250081228 -4.1150795269820035 1.7252376181188336
head 7.4535606019682685 -1.8730797465304354 0.21196955414499719
lclavicle -1.2537747014768228e-15 2.1282100046932845e-15
lhumerus -52.50721565471796 -15.414039975029425 100.73947724616384
lradius 96.82667805593827
lwrist 33.35340787558131
lhand -24.48255486798973 2.7101771789784372
lfingers 7.12502
lthumb 2.0112790811096 32.67000170157317
rclavicle -1.2537747014768228e-15 2.1282100046932845e-15
rhumerus -42.41141790707864 10.92302716275901 -95.49165754772471
rradius 108.85095948072127
rwrist -10.079326417011732
rhand -17.3467761367169 39.75072304436311
rfingers 7.12502
rthumb 8.900259821177821 9.643808282589193
48
root -0.21213819047607274 17.137546957471937 19.09112461351617 3.855661005696816 -1.333541640337248 -5.698273452962019
lfemur -34.703288074181735 6.159267225084829 -10.576440875476141
ltibia 98.89537197966771
lfoot -0.9672899409933478 -4.059650894807751
ltoes -4.935109696763755
rfemur -13.147081992749882 3.3735720398656888 36.221755298326734
rtibia 56.10130287637348
rfoot -18.01790971493704 -16.754007518821474
rtoes -7.616220169985153
lowerback 17.096377463243847 1.1736906990704512 4.239153709032622
upperback -0.2396115980660979 2.720760756818411 3.5548666032379286
thorax -10.129639070864489 1.1583334678393618 0.5160043188592762
lowerneck -22.278879539899428 -3.5327691713486273 -1.5003697905587634
upperneck 12.309424003494762 -4.585771916226563 1.9358981382178522
head 7.450616258320381 -2.080251049939403 0.24738706168581004
lclavicle -1.4227077259196491e-15 2.005674915398102e-15
lhumerus -54.97944862515785 -15.530078027951294 100.96767720282789
lradius 98.11332933406624
lwrist 33.705525071672284
lhand -23.86432979523695 2.58404066254386
lfingers 7.12502
lthumb 2.6082966934499483 32.529261951803484
rclavicle -1.4227077259196491e-15 2.005674915398102e-15
rhumerus -40.95783593950309 11.623972504249101 -95.13072108185028
rradius 110.49819952543109
rwrist -10.409703877329813
rhand -17.382045556829546 39.96652021121744
rfingers 7.12502
rthumb 8.866355684452625 9.845613158753983
49
root -0.193980938434518 17.27559576886999 20.7444261965288 4.077199304128366 -0.5272393274768868 -5.698542440899252
lfemur -37.868774969594256 5.133348924492293 -11.286380142291511
ltibia 95.3491768975073
lfoot -2.263294096444174 -3.394162074535806
ltoes -6.486668782512907
rfemur -8.475279797691842 2.748929279021291 36.22044706612623
rtibia 53.8282802461668
rfoot -15.070844053949047 -14.551989198384476
rtoes -10.306576856145172
lowerback 16.74611542792948 1.4324612510943102 4.758971447012447
upperback -0.42873730625675766 3.1343575881494257 3.3317137813204667
thorax -10.032471034492783 1.3185998672017958 -0.1565647339229833
lowerneck -22.078658045416898 -3.833473871951243 -1.580289311377772
upperneck 12.4396195686283 -5.020252441743038 2.1466191137401367
head 7.48059724524096 -2.271263104477999 0.2842485699931761
lclavicle -1.0874728849506908e-15 2.2488304084661694e-15
lhumerus -57.20745544848612 -15.2420058245015 101.02160430437125
lradius 99.54243977983029
lwrist 34.086683435364755
lhand -23.27459935472185 2.5529068258123115
lfingers 7.12502
lthumb 3.177793629139559 32.48506363090263
rclavicle -1.0874728849506908e-15 2.2488304084661694e-15
rhumerus -39.685058909546306 12.16283242314147 -94.72144471343503
rradius 112.20900761162532
rwrist -10.6710653774632
rhand -17.383273347340136 40.16292973129844
rfingers 7.12502
rthumb 8.865340806531307 10.064752815870346
50
root -0.16743356149463987 17.445288356827056 22.253685884352734 4.18940117256023 0.2332689216726328 -5.653649088210069
lfemur -40.31859904594029 3.771123853302813 -12.26104590223217
ltibia 89.79994318342148
lfoot -3.3739607428717733 -3.130020652209679
ltoes -8.677578242752917
rfemur -3.830000933442186 2.034834345490502 35.970935366435135
rtibia 50.729348149961126
rfoot -10.52986662389905 -11.621246929867386
rtoes -11.503106527659599
lowerback 16.28246555047283 1.6691969220221257 5.237855552479382
upperback -0.6592758974494415 3.499822907448888 3.047810907243042
thorax -9.912338126251191 1.4581144654813438 -0.9101239338419288
lowerneck -21.735252999028457 -4.1185319407913905 -1.66179299669185
upperneck 12.686061441464565 -5.438923766429648 2.309884639456069
head 7.52540012390033 -2.4578812902606013 0.30835960394013473
lclavicle -1.0661448394227772e-15 2.2643014081037187e-15
lhumerus -59.63391627767956 -14.593163171711609 100.84684259081526
lradius 100.82769564007678
lwrist 34.3417830112886
lhand -22.923005105049317 2.623767775640564
lfingers 7.12502
lthumb 3.5173197294681957 32.5483467400521
rclavicle -1.0661448394227772e-15 2.2643014081037187e-15
rhumerus -38.90412785698588 12.462306299822814 -94.36867844224061
rradius 113.66551329339248
rwrist -10.834190076005425
rhand -17.305924226891626 40.244886213504515
rfingers 7.12502
rthumb 8.940101472688582 10.238070784194273
51
root -0.13183976556925892 17.636666919704368 23.82586986443195 4.221190635449426 1.0041333738079117 -5.534633551781322
lfemur -41.8251764344863 2.285258480701229 -13.30498609235146
ltibia 82.88707510213227
lfoot -4.012754642986478 -3.36973060483558
ltoes -11.013350550646752
rfemur 0.9636012643902099 1.438012967334556 35.56619751089001
rtibia 47.31941902345533
rfoot -4.279563824250941 -8.291708988161883
rtoes -10.608062162526828
lowerback 15.725974666688526 1.8957290789462848 5.685794911091156
upperback -0.9234453524341206 3.83049582769698 2.7307584127936466
thorax -9.763659698475276 1.584220729428552 -1.658585044253265
lowerneck -21.25196240167647 -4.371437222219272 -1.7286145012427556
upperneck 13.026915577039397 -5.820258307063262 2.4373179197552277
head 7.577950641213053 -2.629027671544493 0.3249600239489236
lclavicle -1.0382689392914355e-15 2.284528735086894e-15
lhumerus -62.11942740491179 -13.482956380994853 100.44523363495529
lradius 101.81476272390127
lwrist 34.48542312064427
lhand -22.908104895846456 2.8923699301947456
lfingers 7.12502
lthumb 3.5316990827643533 32.81720087619829
rclavicle -1.0382689392914355e-15 2.284528735086894e-15
rhumerus -38.45004353292906 12.697919110047515 -94.06029240321767
rradius 114.79858716687546
rwrist -10.872907248527778
rhand -17.07575437035917 40.18438253317926
rfingers 7.12502
rthumb 9.162206002047876 10.370254583221447
